<svg width="296" height="102" viewBox="0 0 296 102" fill="none" xmlns="http://www.w3.org/2000/svg">
<g clip-path="url(#clip0_1_2)">
<path d="M68.0538 46.2282C67.4376 46.1378 66.8323 46.0926 66.2491 46.0926C64.0811 46.0926 62.1883 46.748 60.5596 48.0701C58.9308 49.3696 57.7533 51.3697 57.027 54.0478H56.6198V47.8667C56.6198 47.1887 56.0806 46.635 55.4203 46.635H45.582C44.9217 46.635 44.3825 47.1774 44.3825 47.8554L44.3605 86.0157C44.3605 86.6937 44.8997 87.2474 45.56 87.2474H55.7615C56.4218 87.2474 56.961 86.705 56.961 86.027V65.201C56.972 63.5738 57.3131 62.1726 57.9844 60.9748C58.6667 59.7544 59.6132 58.8165 60.7907 58.1498C61.9902 57.4605 63.3438 57.1214 64.8294 57.1214C65.9519 57.1214 66.9864 57.2458 68.0208 57.517C68.5821 57.6639 69.1983 57.4265 69.4735 56.8954L73.9854 48.2961C72.6429 47.4825 70.0127 46.5107 68.0538 46.2282Z" fill="#53389E"/>
<path d="M32.0351 38.4989C29.1738 36.9169 25.7623 36.1146 21.8116 36.1146H2.42112C1.10054 36.1033 0.0330755 37.1994 0.0330755 38.5554L6.10352e-05 85.9931C6.10352e-05 86.6711 0.539297 87.2248 1.19959 87.2248H11.5551C12.2154 87.2248 12.7546 86.6824 12.7546 86.0044V73.4387H21.4154C25.4542 73.4387 28.9317 72.6816 31.87 71.1448C34.8083 69.608 37.0643 67.4497 38.649 64.6699C40.2447 61.8675 41.048 58.6018 41.048 54.8614C41.048 51.1211 40.2667 47.878 38.715 45.0756C37.1523 42.2506 34.9294 40.0584 32.0461 38.4876L32.0351 38.4989ZM26.8188 59.2233C26.1475 60.455 25.1571 61.4155 23.8585 62.1048C22.5709 62.7941 20.9642 63.1331 19.0384 63.1331H12.7546V47.8893C12.7546 47.2113 13.2939 46.6576 13.9542 46.6576H19.0384C20.9422 46.6576 22.5489 46.9966 23.8585 47.6633C25.1681 48.33 26.1475 49.2905 26.8188 50.5222C27.4901 51.7426 27.8202 53.189 27.8202 54.8614C27.8202 56.5338 27.4791 57.969 26.8078 59.2233H26.8188Z" fill="#53389E"/>
<path d="M146.188 48.3978C143.8 46.9175 141.236 46.1717 138.485 46.1717C136.405 46.1717 134.622 46.5446 133.125 47.2791C131.651 48.0023 130.429 48.9289 129.472 50.0815C128.525 51.2228 127.799 52.4206 127.282 53.6523H126.897V47.9232C126.897 47.2452 126.357 46.6915 125.697 46.6915H115.628C114.967 46.6915 114.428 47.2339 114.428 47.9119L114.395 99.8809C114.395 100.83 115.397 101.418 116.189 100.943L126.39 96.118C126.765 95.9033 126.985 95.4965 126.985 95.0558V80.716H127.249C127.777 81.9703 128.536 83.1455 129.516 84.2303C130.506 85.3264 131.739 86.2078 133.191 86.8745C134.655 87.5412 136.372 87.8802 138.364 87.8802C141.28 87.8802 143.932 87.1118 146.32 85.5637C148.73 84.0156 150.634 81.6878 152.043 78.5916C153.473 75.4953 154.189 71.642 154.189 67.0429C154.189 62.263 153.451 58.3306 151.977 55.2456C150.502 52.1607 148.565 49.8781 146.166 48.3978H146.188ZM140.433 72.7155C139.882 74.3314 139.068 75.597 137.989 76.4898C136.911 77.3712 135.59 77.8119 134.05 77.8119C132.509 77.8119 131.211 77.3712 130.11 76.4898C129.032 75.5857 128.195 74.3314 127.612 72.7042C127.051 71.077 126.765 69.1786 126.765 66.9977C126.765 64.8168 127.051 62.8619 127.623 61.2573C128.206 59.6527 129.043 58.421 130.121 57.5621C131.199 56.7033 132.52 56.2626 134.061 56.2739C135.601 56.2852 136.933 56.7146 138 57.5961C139.079 58.4775 139.893 59.7205 140.444 61.3251C141.005 62.9297 141.291 64.8281 141.291 67.009C141.291 69.1899 141.005 71.0996 140.433 72.7155Z" fill="#53389E"/>
<path d="M210.808 36.1711L200.607 40.7816C200.233 40.9963 199.991 41.4031 199.991 41.8551L199.969 86.1174C199.969 86.7954 200.508 87.3491 201.168 87.3491H211.37C212.03 87.3491 212.569 86.8067 212.569 86.1287L212.602 37.2446C212.602 36.3067 211.623 35.7191 210.819 36.1711H210.808Z" fill="#53389E"/>
<path d="M191.11 51.5392C189.415 49.7764 187.39 48.443 185.057 47.539C182.724 46.635 180.149 46.183 177.332 46.183C173.348 46.183 169.892 47.0644 166.954 48.8159C164.016 50.5561 161.738 53.0082 160.131 56.1609C158.513 59.3024 157.71 62.9636 157.699 67.1559C157.688 71.3482 158.491 75.2015 160.087 78.343C161.694 81.4618 163.994 83.8687 166.987 85.5637C169.991 87.2361 173.557 88.0836 177.695 88.0836C181.15 88.0836 184.188 87.5525 186.807 86.479C189.437 85.3829 191.55 83.8687 193.168 81.9138C194.51 80.2979 195.457 78.4447 196.029 76.3542C196.227 75.631 195.677 74.6591 194.95 74.6365H185.64C185.123 74.6139 184.672 74.9416 184.43 75.405C184.133 75.9587 183.759 76.4559 183.318 76.874C182.669 77.4955 181.888 77.9588 180.974 78.2752C180.061 78.5916 179.048 78.7498 177.937 78.7498C176.319 78.7498 174.933 78.3995 173.766 77.7215C172.6 77.0322 171.697 76.0717 171.059 74.8399C170.421 73.5856 170.113 72.1279 170.113 70.4781V70.1391L194.697 70.1504C195.963 70.1504 196.37 69.6645 196.48 68.9187C196.48 68.9187 197.107 63.3817 195.071 58.0594C194.081 55.4829 192.804 53.2907 191.11 51.5279V51.5392ZM170.124 62.6359C170.19 61.3251 170.531 60.1612 171.147 59.1216C171.796 58.0142 172.688 57.144 173.799 56.4999C174.911 55.8445 176.176 55.5281 177.585 55.5281C178.993 55.5281 180.204 55.8332 181.271 56.4547C182.35 57.0536 183.197 57.8899 183.825 58.9634C184.441 60.0369 184.76 61.2686 184.771 62.6359H170.124Z" fill="#53389E"/>
<path d="M101.63 48.7933C98.6582 47.0305 95.1037 46.1491 90.9439 46.1378C86.784 46.1265 83.2185 47.0192 80.2252 48.7707C77.2539 50.5109 74.9649 52.963 73.3472 56.1157C71.7515 59.2572 70.9481 62.9071 70.9481 67.0881C70.9481 71.2691 71.7405 74.9077 73.3362 78.0605C74.9429 81.2019 77.2429 83.654 80.2032 85.4168C83.1855 87.1683 86.762 88.0384 90.9109 88.0384C95.0597 88.0384 98.6252 87.1683 101.597 85.4281C104.59 83.6653 106.879 81.2132 108.475 78.0831C110.092 74.9303 110.896 71.2691 110.907 67.1107C110.918 62.9523 110.103 59.2798 108.497 56.1383C106.901 52.9856 104.612 50.5335 101.63 48.782V48.7933ZM97.2386 72.9076C96.6884 74.6026 95.885 75.9248 94.8396 76.874C93.7941 77.8232 92.5176 78.2978 90.9989 78.2978C89.4802 78.2978 88.1156 77.8232 87.0371 76.8627C85.9697 75.9135 85.1553 74.5913 84.5941 72.8963C84.0438 71.2013 83.7687 69.2464 83.7687 67.0203C83.7687 64.7942 84.0438 62.7941 84.5941 61.0991C85.1663 59.4041 85.9807 58.082 87.0482 57.1327C88.1266 56.1835 89.4472 55.7089 91.0099 55.7089C92.5726 55.7089 93.7941 56.1835 94.8506 57.144C95.896 58.0933 96.6994 59.4154 97.2386 61.1104C97.7999 62.8054 98.086 64.7829 98.086 67.0316C98.086 69.2803 97.7999 71.2126 97.2276 72.8963L97.2386 72.9076Z" fill="#53389E"/>
</g>
<g clip-path="url(#clip1_1_2)">
<path fill-rule="evenodd" clip-rule="evenodd" d="M274.995 44.7519C275.014 44.7552 275.034 44.7588 275.056 44.7626C275.177 44.7837 275.349 44.8127 275.564 44.8469C275.993 44.915 276.598 45.0041 277.319 45.0912C278.743 45.2633 280.699 45.4373 282.681 45.4079C284.562 45.3799 286.913 45.1694 288.869 44.2914C289.888 43.8337 291.026 43.0952 291.852 41.8878C292.727 40.6094 293.038 39.1176 292.865 37.6075C292.689 36.0852 291.957 34.5706 291.223 33.3601C290.432 32.0573 289.393 30.7107 288.215 29.4683C285.986 27.1159 282.684 24.5376 279.039 23.9499C276.338 23.5144 273.532 24.3211 271.295 25.1956C270.59 25.471 269.883 25.7776 269.188 26.0994C269.047 25.793 268.878 25.4991 268.683 25.2209C267.814 23.975 266.551 23.1775 265.505 22.6609C263.352 21.5974 260.53 20.9642 257.935 20.6591C255.321 20.3517 252.49 20.3256 250.226 20.7469C249.146 20.9477 247.807 21.3174 246.691 22.1054C246.34 22.3532 245.962 22.6773 245.62 23.0934C244.53 21.8404 243.417 20.5927 242.356 19.4962C241.527 18.6394 240.678 17.8199 239.85 17.1344C239.067 16.4858 238.098 15.7828 237.035 15.3578C233.137 13.7991 228.756 14.6571 225.678 15.6938C224.049 16.2424 222.564 16.9155 221.37 17.5622C220.288 18.1486 219.123 18.8846 218.381 19.648C217.297 20.7648 216.113 22.646 216.019 24.9055C215.969 26.1141 216.24 27.4236 217.012 28.6397C217.773 29.8399 218.883 30.7305 220.168 31.3593C224 33.234 230.465 35.154 236.197 36.8562C236.297 36.8861 236.398 36.916 236.499 36.9459C238.755 37.6161 240.922 38.2601 242.87 38.8743C242.181 39.1596 241.5 39.4736 240.837 39.815C237.909 41.3227 234.699 43.6976 233.229 47.1356C231.238 51.7931 232.152 56.537 234.381 60.3269C236.586 64.0756 240.188 67.137 244.206 68.8594C248.311 70.6189 253.024 70.9307 257.218 69.7521C261.446 68.5637 265.351 65.7802 267.299 61.2226C269.883 55.1782 267.963 48.4015 264.233 43.7111C265.263 43.7913 266.361 43.8864 267.454 43.9869C269.416 44.1672 271.332 44.3619 272.76 44.5117C273.474 44.5866 274.064 44.6501 274.475 44.6949C274.681 44.7173 274.841 44.7349 274.95 44.747L274.995 44.7519Z" fill="url(#paint0_linear_1_2)"/>
<path d="M277.858 28.1618C272.96 27.2521 265.029 32.7352 261.125 34.004C260.858 34.0907 258.138 39.8015 257.958 40.0534C255.618 43.3306 252.443 41.1986 251.009 34.5702C248.242 33.8892 239.359 20.077 235.3 18.3408C230.025 16.0845 221.918 20.0891 220.549 21.4339C219.179 22.7786 217.975 25.6678 221.18 27.3313C228.478 31.1191 247.411 35.6958 251.108 38.5491C253.088 39.2532 248.439 30.4277 247.647 26.256C246.855 22.0842 267.499 24.4486 265.234 29.3112C264.6 30.6726 262.941 31.9365 261.125 34.004C259.274 37.409 257.609 40.437 257.841 40.1002C258.292 39.4443 274.6 41.6614 274.6 41.6614C274.6 41.6614 288.911 44.6925 288.382 38.8813C288.113 35.9239 282.756 29.0715 277.858 28.1618Z" fill="white"/>
<path d="M255.641 33.3648C253.423 32.8585 252.136 37.4529 252.136 37.4529C252.136 37.4529 256.763 41.0994 257.048 38.1237C257.333 35.148 256.709 33.6084 255.641 33.3648Z" fill="white"/>
<path fill-rule="evenodd" clip-rule="evenodd" d="M281.695 41.7473C283.477 41.7632 287.935 41.7471 287.681 38.9462C287.485 36.7997 285.636 34.5579 284.031 33.2932C281.511 31.3078 279.696 30.3523 277.474 29.9396C276.398 29.7397 275.101 29.8843 273.655 30.2774C272.216 30.6686 269.482 31.5808 267.955 32.2821C266.374 32.8374 265.416 33.1927 264.463 33.5458C264 33.7175 263.538 33.8888 263.007 34.0824L263.029 34.1498C262.53 34.3161 262.052 34.4717 261.593 34.6164C261.216 35.3099 260.849 35.9832 260.507 36.6114L260.506 36.6132L260.104 37.3496C259.868 37.8215 259.635 38.2922 259.424 38.7185L259.423 38.7199L259.42 38.7261C259.323 38.9222 259.23 39.1089 259.144 39.2817C259.588 39.2939 260.116 39.3236 260.7 39.3661C262.307 39.4828 264.4 39.6998 266.469 39.9362C268.214 40.1356 269.968 40.4086 271.726 40.6822C275.046 41.1989 278.379 41.7177 281.695 41.7473ZM260.736 33.3517C264.648 27.638 263.588 26.1274 256.53 25.1269C254.182 24.7941 252.186 24.7122 250.491 24.9861C247.008 25.549 248.918 29.4514 250.253 32.1763C250.499 32.6793 250.726 33.1422 250.895 33.5366C251.418 33.806 251.917 34.0194 252.416 34.1788C252.756 33.6949 253.182 33.199 253.693 32.8306C254.33 32.3711 255.189 32.0556 256.159 32.3482C257.038 32.6136 257.589 33.3036 257.889 34.1315C258.728 33.9407 259.666 33.6817 260.736 33.3517ZM252.562 37.3765C252.714 37.0458 252.982 36.4873 253.315 35.8909C253.878 35.9791 254.462 36.0151 255.087 35.9973C255.745 35.9785 256.443 35.9 257.202 35.7639C257.242 36.4711 257.175 37.3069 257.021 38.2363C256.626 40.6173 253.871 38.7938 252.825 38.0034C252.736 37.8051 252.648 37.5961 252.562 37.3765ZM253.987 39.9135C254.57 40.2066 255.32 40.4889 256.055 40.4214C256.389 40.3907 256.731 40.2868 257.038 40.0788C256.636 40.5224 256.254 40.747 255.92 40.8279C255.515 40.9261 255.066 40.8409 254.565 40.4644C254.373 40.32 254.18 40.1366 253.987 39.9135ZM258.035 38.2093C258.187 37.2187 258.236 36.3334 258.176 35.5656C258.633 35.4627 259.111 35.342 259.615 35.2037C259.384 35.6498 259.13 36.1514 258.879 36.6522L258.857 36.6966C258.571 37.2218 258.309 37.7027 258.083 38.1202C258.067 38.1502 258.05 38.1799 258.035 38.2093ZM264.385 31.7978C264.272 31.8534 264.161 31.9082 264.051 31.9622L264.127 31.8842C264.846 31.1419 265.498 30.4102 265.871 29.6102C266.266 28.762 266.152 27.9337 265.681 27.2243C262.871 22.987 252.225 21.4865 247.875 24.4061C245.993 25.6701 247.355 28.717 248.255 30.7279C248.429 31.1177 248.586 31.4686 248.698 31.76C248.626 31.6814 248.552 31.601 248.478 31.519C247.24 30.1528 246.054 28.5204 244.841 26.8496C242.175 23.1769 239.374 19.3187 235.576 17.6942C231.167 15.8088 223.507 17.5427 220.055 20.9321C219.288 21.6849 218.532 22.8965 218.446 24.2182C218.402 24.8943 218.534 25.5993 218.933 26.2617C219.33 26.9209 219.964 27.4951 220.855 27.9577C224.423 29.8093 230.68 31.8307 236.551 33.7275L236.566 33.7323C239.879 34.8027 243.076 35.8353 245.654 36.7872C248.08 37.6832 249.852 38.4715 250.677 39.1081L250.766 39.1765L250.871 39.214C251.065 39.2829 251.348 39.3431 251.642 39.2365C251.706 39.2133 251.764 39.1848 251.817 39.1521C252.374 40.2355 253.016 41.0607 253.72 41.5907C254.485 42.1661 255.358 42.4137 256.252 42.197C257.046 42.0046 257.752 41.4703 258.359 40.6939C258.447 40.6885 258.558 40.6851 258.693 40.6845C259.155 40.6825 259.807 40.7137 260.598 40.7711C262.176 40.8857 264.245 41.1 266.309 41.3358C268.065 41.5364 269.828 41.8096 271.595 42.0833C274.954 42.6036 278.326 43.1261 281.682 43.156C283.89 43.1757 287.065 43.0922 288.512 41.0822C291.996 36.2424 282.149 28.2437 277.985 27.4704C276.613 27.2154 275.081 27.4151 273.541 27.8338C271.993 28.2545 270.38 28.9124 268.824 29.6268C267.646 30.1677 266.483 30.7496 265.398 31.2923L265.398 31.2923C265.052 31.4657 264.713 31.635 264.385 31.7978ZM246.14 35.4655C248.04 36.1668 249.68 36.8497 250.787 37.4968C250.625 36.8263 250.292 35.8835 249.87 34.7751C249.66 34.6283 249.45 34.4599 249.245 34.2825C248.698 33.8091 248.086 33.1829 247.436 32.4657C246.233 31.1383 245.073 29.5227 243.883 27.8634C241.322 24.2959 238.617 20.527 235.023 18.9897C232.62 17.9621 229.477 18.3382 226.667 19.2108C223.799 20.1013 219.366 23.0716 222.973 26.0803C225.666 28.3267 236.009 31.9053 239.317 32.9747C241.404 33.6491 242.693 34.1471 244.075 34.6809C244.714 34.9278 245.374 35.1823 246.14 35.4655ZM255.045 34.5356C254.749 34.544 254.464 34.5386 254.187 34.5191C254.733 33.7874 255.327 33.2569 255.843 33.3985C256.327 33.5313 256.67 33.8547 256.892 34.334C256.218 34.4529 255.61 34.5195 255.045 34.5356Z" fill="#30374F"/>
<path d="M254.444 35.9635C253.206 35.9218 251.153 35.5252 249.712 34.6471L249.835 37.0052C251.246 37.8837 253.432 38.1801 251.201 40.3165C251.067 40.4455 255.506 39.5352 255.884 39.4709C258.022 39.1068 260.752 39.3519 260.752 39.3519C262.798 37.3489 266.004 33.1639 263.765 33.7992C261.962 34.3112 257.008 36.0498 254.444 35.9635Z" fill="white"/>
<path fill-rule="evenodd" clip-rule="evenodd" d="M257.288 37.7927C256.157 36.9035 253.968 36.8177 252.543 36.8814C252.131 36.8998 251.482 36.9653 250.964 37.3024C250.357 37.6975 249.368 38.6211 248.588 39.6014C243.809 40.6358 238.78 43.9354 237.014 49.0357C234.347 56.7378 238.677 64.4615 246.214 67.0782C249.954 68.3767 254.149 68.3521 257.757 67.0561C261.379 65.7555 264.488 63.1378 265.846 59.2154C268.067 52.8022 264.644 45.8136 259.566 42.2047C259.005 40.6529 258.687 38.8939 257.288 37.7927Z" fill="#30374F"/>
<path fill-rule="evenodd" clip-rule="evenodd" d="M255.172 38.6054C255.582 38.7356 256.053 38.93 256.422 39.2282C256.908 39.6213 257.34 40.2955 257.671 40.9233C257.783 41.1354 257.892 41.3602 257.997 41.5934C255.515 40.6056 254.021 40.8229 253.444 40.9068C253.329 40.9235 253.251 40.935 253.208 40.9305C253.264 40.9445 253.373 40.9576 253.526 40.976C254.358 41.0756 256.49 41.3308 258.453 42.7446C258.455 42.752 258.458 42.7593 258.46 42.7666C262.886 45.9893 265.908 52.5289 263.891 58.3709C262.658 61.944 259.899 64.3511 256.704 65.5684C253.52 66.7813 249.492 66.8801 246.218 65.7401C239.623 63.443 235.489 56.4392 237.911 49.423C239.515 44.7769 244.643 41.5025 248.853 40.515C249.733 39.6515 250.501 39.0043 251.039 38.6396C251.498 38.3284 252.068 38.2623 252.43 38.2414C252.861 38.2165 253.338 38.2436 253.798 38.305C254.26 38.3666 254.738 38.4674 255.172 38.6054Z" fill="white"/>
<path fill-rule="evenodd" clip-rule="evenodd" d="M250.919 58.0365C254.256 58.8653 256.643 56.312 257.751 53.1512C258.69 50.4742 259.474 46.4374 256.067 44.6762C254.361 43.7944 250.295 42.7563 246.31 43.1154C240.912 43.6016 238.678 45.1836 237.622 46.218C236.569 47.2076 235.713 48.5972 235.456 50.3236C234.585 56.1614 237.413 58.7838 238.604 58.2008L238.605 58.2014C238.606 58.2003 238.608 58.1993 238.609 58.1983C238.624 58.191 238.638 58.1832 238.652 58.175C238.737 58.1251 238.822 58.0675 238.905 58.003C241.674 56.2906 245.9 56.7896 250.919 58.0365Z" fill="white"/>
<path fill-rule="evenodd" clip-rule="evenodd" d="M238.799 57.9306L238.798 57.93C237.641 58.5017 234.89 55.9234 235.732 50.1898C235.98 48.4943 236.811 47.13 237.833 46.1589C238.859 45.1436 241.03 43.5915 246.275 43.1184C250.149 42.769 254.101 43.7921 255.76 44.6596C259.073 46.3925 258.314 50.357 257.404 52.9858C256.33 56.0896 254.012 58.5957 250.768 57.7788C245.888 56.5499 241.781 56.0562 239.09 57.736C239.009 57.7992 238.927 57.8558 238.845 57.9047C238.831 57.9128 238.817 57.9204 238.803 57.9275L238.799 57.9306ZM238.177 58.8641C238.082 58.7314 238.265 58.744 238.202 58.7246C238.091 58.6905 238.183 58.7661 237.872 58.6483C237.273 58.2792 236.729 57.6769 236.296 56.9105C235.424 55.3634 234.933 53.0252 235.381 49.9679C235.67 48.0012 236.632 46.4234 237.805 45.3071C239.039 44.0888 241.758 42.2843 246.176 41.8858C250.242 41.5191 254.774 42.2604 256.625 43.2285C259.094 44.52 259.948 46.4178 260.079 48.2447C260.206 50.0079 259.856 52.3058 259.385 53.6659C258.804 55.3451 257.654 57.279 256.333 58.3562C254.977 59.4616 253.262 59.9913 251.283 59.4931C248.867 58.8847 245.662 57.9078 243.802 57.8446C241.963 57.7821 240.679 57.8458 239.589 58.5111C239.117 58.778 238.717 58.8954 238.423 58.8445M238.177 58.8641C238.372 58.9403 238.252 58.9102 238.423 58.8445L238.177 58.8641Z" fill="#30374F"/>
</g>
<defs>
<linearGradient id="paint0_linear_1_2" x1="228.927" y1="46.0336" x2="273.262" y2="54.8174" gradientUnits="userSpaceOnUse">
<stop offset="0.166667" stop-color="#6947C3"/>
<stop offset="0.510417" stop-color="#FF6F30"/>
<stop offset="0.932292" stop-color="#FFBD00"/>
</linearGradient>
<clipPath id="clip0_1_2">
<rect width="212.591" height="65.0997" fill="white" transform="translate(6.10352e-05 36.0126)"/>
</clipPath>
<clipPath id="clip1_1_2">
<rect width="83.4089" height="83.4089" fill="white" transform="translate(212.591 0.411575)"/>
</clipPath>
</defs>
</svg>
